<?xml version="1.0" encoding="utf-8" standalone="no"?>
<!DOCTYPE svg PUBLIC "-//W3C//DTD SVG 1.1//EN"
  "http://www.w3.org/Graphics/SVG/1.1/DTD/svg11.dtd">
<!-- Created with matplotlib (https://matplotlib.org/) -->
<svg height="608.745325pt" version="1.1" viewBox="0 0 553.5525 608.745325" width="553.5525pt" xmlns="http://www.w3.org/2000/svg" xmlns:xlink="http://www.w3.org/1999/xlink">
 <defs>
  <style type="text/css">
*{stroke-linecap:butt;stroke-linejoin:round;}
  </style>
 </defs>
 <g id="figure_1">
  <g id="patch_1">
   <path d="M 0 608.745325 
L 553.5525 608.745325 
L 553.5525 0 
L 0 0 
z
" style="fill:#ffffff;"/>
  </g>
  <g id="axes_1">
   <g id="patch_2">
    <path d="M 44.1525 527.356875 
L 546.3525 527.356875 
L 546.3525 28.396875 
L 44.1525 28.396875 
z
" style="fill:#eaeaf2;"/>
   </g>
   <g id="matplotlib.axis_1">
    <g id="xtick_1">
     <g id="line2d_1">
      <path clip-path="url(#pe289a20b90)" d="M 75.54 527.356875 
L 75.54 28.396875 
" style="fill:none;stroke:#ffffff;stroke-linecap:round;stroke-width:0.8;"/>
     </g>
     <g id="line2d_2"/>
     <g id="text_1">
      <!-- background -->
      <defs>
       <path d="M 48.6875 27.296875 
Q 48.6875 37.203125 44.609375 42.84375 
Q 40.53125 48.484375 33.40625 48.484375 
Q 26.265625 48.484375 22.1875 42.84375 
Q 18.109375 37.203125 18.109375 27.296875 
Q 18.109375 17.390625 22.1875 11.75 
Q 26.265625 6.109375 33.40625 6.109375 
Q 40.53125 6.109375 44.609375 11.75 
Q 48.6875 17.390625 48.6875 27.296875 
z
M 18.109375 46.390625 
Q 20.953125 51.265625 25.265625 53.625 
Q 29.59375 56 35.59375 56 
Q 45.5625 56 51.78125 48.09375 
Q 58.015625 40.1875 58.015625 27.296875 
Q 58.015625 14.40625 51.78125 6.484375 
Q 45.5625 -1.421875 35.59375 -1.421875 
Q 29.59375 -1.421875 25.265625 0.953125 
Q 20.953125 3.328125 18.109375 8.203125 
L 18.109375 0 
L 9.078125 0 
L 9.078125 75.984375 
L 18.109375 75.984375 
z
" id="DejaVuSans-98"/>
       <path d="M 34.28125 27.484375 
Q 23.390625 27.484375 19.1875 25 
Q 14.984375 22.515625 14.984375 16.5 
Q 14.984375 11.71875 18.140625 8.90625 
Q 21.296875 6.109375 26.703125 6.109375 
Q 34.1875 6.109375 38.703125 11.40625 
Q 43.21875 16.703125 43.21875 25.484375 
L 43.21875 27.484375 
z
M 52.203125 31.203125 
L 52.203125 0 
L 43.21875 0 
L 43.21875 8.296875 
Q 40.140625 3.328125 35.546875 0.953125 
Q 30.953125 -1.421875 24.3125 -1.421875 
Q 15.921875 -1.421875 10.953125 3.296875 
Q 6 8.015625 6 15.921875 
Q 6 25.140625 12.171875 29.828125 
Q 18.359375 34.515625 30.609375 34.515625 
L 43.21875 34.515625 
L 43.21875 35.40625 
Q 43.21875 41.609375 39.140625 45 
Q 35.0625 48.390625 27.6875 48.390625 
Q 23 48.390625 18.546875 47.265625 
Q 14.109375 46.140625 10.015625 43.890625 
L 10.015625 52.203125 
Q 14.9375 54.109375 19.578125 55.046875 
Q 24.21875 56 28.609375 56 
Q 40.484375 56 46.34375 49.84375 
Q 52.203125 43.703125 52.203125 31.203125 
z
" id="DejaVuSans-97"/>
       <path d="M 48.78125 52.59375 
L 48.78125 44.1875 
Q 44.96875 46.296875 41.140625 47.34375 
Q 37.3125 48.390625 33.40625 48.390625 
Q 24.65625 48.390625 19.8125 42.84375 
Q 14.984375 37.3125 14.984375 27.296875 
Q 14.984375 17.28125 19.8125 11.734375 
Q 24.65625 6.203125 33.40625 6.203125 
Q 37.3125 6.203125 41.140625 7.25 
Q 44.96875 8.296875 48.78125 10.40625 
L 48.78125 2.09375 
Q 45.015625 0.34375 40.984375 -0.53125 
Q 36.96875 -1.421875 32.421875 -1.421875 
Q 20.0625 -1.421875 12.78125 6.34375 
Q 5.515625 14.109375 5.515625 27.296875 
Q 5.515625 40.671875 12.859375 48.328125 
Q 20.21875 56 33.015625 56 
Q 37.15625 56 41.109375 55.140625 
Q 45.0625 54.296875 48.78125 52.59375 
z
" id="DejaVuSans-99"/>
       <path d="M 9.078125 75.984375 
L 18.109375 75.984375 
L 18.109375 31.109375 
L 44.921875 54.6875 
L 56.390625 54.6875 
L 27.390625 29.109375 
L 57.625 0 
L 45.90625 0 
L 18.109375 26.703125 
L 18.109375 0 
L 9.078125 0 
z
" id="DejaVuSans-107"/>
       <path d="M 45.40625 27.984375 
Q 45.40625 37.75 41.375 43.109375 
Q 37.359375 48.484375 30.078125 48.484375 
Q 22.859375 48.484375 18.828125 43.109375 
Q 14.796875 37.75 14.796875 27.984375 
Q 14.796875 18.265625 18.828125 12.890625 
Q 22.859375 7.515625 30.078125 7.515625 
Q 37.359375 7.515625 41.375 12.890625 
Q 45.40625 18.265625 45.40625 27.984375 
z
M 54.390625 6.78125 
Q 54.390625 -7.171875 48.1875 -13.984375 
Q 42 -20.796875 29.203125 -20.796875 
Q 24.46875 -20.796875 20.265625 -20.09375 
Q 16.0625 -19.390625 12.109375 -17.921875 
L 12.109375 -9.1875 
Q 16.0625 -11.328125 19.921875 -12.34375 
Q 23.78125 -13.375 27.78125 -13.375 
Q 36.625 -13.375 41.015625 -8.765625 
Q 45.40625 -4.15625 45.40625 5.171875 
L 45.40625 9.625 
Q 42.625 4.78125 38.28125 2.390625 
Q 33.9375 0 27.875 0 
Q 17.828125 0 11.671875 7.65625 
Q 5.515625 15.328125 5.515625 27.984375 
Q 5.515625 40.671875 11.671875 48.328125 
Q 17.828125 56 27.875 56 
Q 33.9375 56 38.28125 53.609375 
Q 42.625 51.21875 45.40625 46.390625 
L 45.40625 54.6875 
L 54.390625 54.6875 
z
" id="DejaVuSans-103"/>
       <path d="M 41.109375 46.296875 
Q 39.59375 47.171875 37.8125 47.578125 
Q 36.03125 48 33.890625 48 
Q 26.265625 48 22.1875 43.046875 
Q 18.109375 38.09375 18.109375 28.8125 
L 18.109375 0 
L 9.078125 0 
L 9.078125 54.6875 
L 18.109375 54.6875 
L 18.109375 46.1875 
Q 20.953125 51.171875 25.484375 53.578125 
Q 30.03125 56 36.53125 56 
Q 37.453125 56 38.578125 55.875 
Q 39.703125 55.765625 41.0625 55.515625 
z
" id="DejaVuSans-114"/>
       <path d="M 30.609375 48.390625 
Q 23.390625 48.390625 19.1875 42.75 
Q 14.984375 37.109375 14.984375 27.296875 
Q 14.984375 17.484375 19.15625 11.84375 
Q 23.34375 6.203125 30.609375 6.203125 
Q 37.796875 6.203125 41.984375 11.859375 
Q 46.1875 17.53125 46.1875 27.296875 
Q 46.1875 37.015625 41.984375 42.703125 
Q 37.796875 48.390625 30.609375 48.390625 
z
M 30.609375 56 
Q 42.328125 56 49.015625 48.375 
Q 55.71875 40.765625 55.71875 27.296875 
Q 55.71875 13.875 49.015625 6.21875 
Q 42.328125 -1.421875 30.609375 -1.421875 
Q 18.84375 -1.421875 12.171875 6.21875 
Q 5.515625 13.875 5.515625 27.296875 
Q 5.515625 40.765625 12.171875 48.375 
Q 18.84375 56 30.609375 56 
z
" id="DejaVuSans-111"/>
       <path d="M 8.5 21.578125 
L 8.5 54.6875 
L 17.484375 54.6875 
L 17.484375 21.921875 
Q 17.484375 14.15625 20.5 10.265625 
Q 23.53125 6.390625 29.59375 6.390625 
Q 36.859375 6.390625 41.078125 11.03125 
Q 45.3125 15.671875 45.3125 23.6875 
L 45.3125 54.6875 
L 54.296875 54.6875 
L 54.296875 0 
L 45.3125 0 
L 45.3125 8.40625 
Q 42.046875 3.421875 37.71875 1 
Q 33.40625 -1.421875 27.6875 -1.421875 
Q 18.265625 -1.421875 13.375 4.4375 
Q 8.5 10.296875 8.5 21.578125 
z
M 31.109375 56 
z
" id="DejaVuSans-117"/>
       <path d="M 54.890625 33.015625 
L 54.890625 0 
L 45.90625 0 
L 45.90625 32.71875 
Q 45.90625 40.484375 42.875 44.328125 
Q 39.84375 48.1875 33.796875 48.1875 
Q 26.515625 48.1875 22.3125 43.546875 
Q 18.109375 38.921875 18.109375 30.90625 
L 18.109375 0 
L 9.078125 0 
L 9.078125 54.6875 
L 18.109375 54.6875 
L 18.109375 46.1875 
Q 21.34375 51.125 25.703125 53.5625 
Q 30.078125 56 35.796875 56 
Q 45.21875 56 50.046875 50.171875 
Q 54.890625 44.34375 54.890625 33.015625 
z
" id="DejaVuSans-110"/>
       <path d="M 45.40625 46.390625 
L 45.40625 75.984375 
L 54.390625 75.984375 
L 54.390625 0 
L 45.40625 0 
L 45.40625 8.203125 
Q 42.578125 3.328125 38.25 0.953125 
Q 33.9375 -1.421875 27.875 -1.421875 
Q 17.96875 -1.421875 11.734375 6.484375 
Q 5.515625 14.40625 5.515625 27.296875 
Q 5.515625 40.1875 11.734375 48.09375 
Q 17.96875 56 27.875 56 
Q 33.9375 56 38.25 53.625 
Q 42.578125 51.265625 45.40625 46.390625 
z
M 14.796875 27.296875 
Q 14.796875 17.390625 18.875 11.75 
Q 22.953125 6.109375 30.078125 6.109375 
Q 37.203125 6.109375 41.296875 11.75 
Q 45.40625 17.390625 45.40625 27.296875 
Q 45.40625 37.203125 41.296875 42.84375 
Q 37.203125 48.484375 30.078125 48.484375 
Q 22.953125 48.484375 18.875 42.84375 
Q 14.796875 37.203125 14.796875 27.296875 
z
" id="DejaVuSans-100"/>
      </defs>
      <g style="fill:#262626;" transform="translate(56.502807 578.206513)rotate(-45)scale(0.1 -0.1)">
       <use xlink:href="#DejaVuSans-98"/>
       <use x="63.476562" xlink:href="#DejaVuSans-97"/>
       <use x="124.755859" xlink:href="#DejaVuSans-99"/>
       <use x="179.736328" xlink:href="#DejaVuSans-107"/>
       <use x="237.646484" xlink:href="#DejaVuSans-103"/>
       <use x="301.123047" xlink:href="#DejaVuSans-114"/>
       <use x="342.205078" xlink:href="#DejaVuSans-111"/>
       <use x="403.386719" xlink:href="#DejaVuSans-117"/>
       <use x="466.765625" xlink:href="#DejaVuSans-110"/>
       <use x="530.144531" xlink:href="#DejaVuSans-100"/>
      </g>
     </g>
    </g>
    <g id="xtick_2">
     <g id="line2d_3">
      <path clip-path="url(#pe289a20b90)" d="M 138.315 527.356875 
L 138.315 28.396875 
" style="fill:none;stroke:#ffffff;stroke-linecap:round;stroke-width:0.8;"/>
     </g>
     <g id="line2d_4"/>
     <g id="text_2">
      <!-- spine -->
      <defs>
       <path d="M 44.28125 53.078125 
L 44.28125 44.578125 
Q 40.484375 46.53125 36.375 47.5 
Q 32.28125 48.484375 27.875 48.484375 
Q 21.1875 48.484375 17.84375 46.4375 
Q 14.5 44.390625 14.5 40.28125 
Q 14.5 37.15625 16.890625 35.375 
Q 19.28125 33.59375 26.515625 31.984375 
L 29.59375 31.296875 
Q 39.15625 29.25 43.1875 25.515625 
Q 47.21875 21.78125 47.21875 15.09375 
Q 47.21875 7.46875 41.1875 3.015625 
Q 35.15625 -1.421875 24.609375 -1.421875 
Q 20.21875 -1.421875 15.453125 -0.5625 
Q 10.6875 0.296875 5.421875 2 
L 5.421875 11.28125 
Q 10.40625 8.6875 15.234375 7.390625 
Q 20.0625 6.109375 24.8125 6.109375 
Q 31.15625 6.109375 34.5625 8.28125 
Q 37.984375 10.453125 37.984375 14.40625 
Q 37.984375 18.0625 35.515625 20.015625 
Q 33.0625 21.96875 24.703125 23.78125 
L 21.578125 24.515625 
Q 13.234375 26.265625 9.515625 29.90625 
Q 5.8125 33.546875 5.8125 39.890625 
Q 5.8125 47.609375 11.28125 51.796875 
Q 16.75 56 26.8125 56 
Q 31.78125 56 36.171875 55.265625 
Q 40.578125 54.546875 44.28125 53.078125 
z
" id="DejaVuSans-115"/>
       <path d="M 18.109375 8.203125 
L 18.109375 -20.796875 
L 9.078125 -20.796875 
L 9.078125 54.6875 
L 18.109375 54.6875 
L 18.109375 46.390625 
Q 20.953125 51.265625 25.265625 53.625 
Q 29.59375 56 35.59375 56 
Q 45.5625 56 51.78125 48.09375 
Q 58.015625 40.1875 58.015625 27.296875 
Q 58.015625 14.40625 51.78125 6.484375 
Q 45.5625 -1.421875 35.59375 -1.421875 
Q 29.59375 -1.421875 25.265625 0.953125 
Q 20.953125 3.328125 18.109375 8.203125 
z
M 48.6875 27.296875 
Q 48.6875 37.203125 44.609375 42.84375 
Q 40.53125 48.484375 33.40625 48.484375 
Q 26.265625 48.484375 22.1875 42.84375 
Q 18.109375 37.203125 18.109375 27.296875 
Q 18.109375 17.390625 22.1875 11.75 
Q 26.265625 6.109375 33.40625 6.109375 
Q 40.53125 6.109375 44.609375 11.75 
Q 48.6875 17.390625 48.6875 27.296875 
z
" id="DejaVuSans-112"/>
       <path d="M 9.421875 54.6875 
L 18.40625 54.6875 
L 18.40625 0 
L 9.421875 0 
z
M 9.421875 75.984375 
L 18.40625 75.984375 
L 18.40625 64.59375 
L 9.421875 64.59375 
z
" id="DejaVuSans-105"/>
       <path d="M 56.203125 29.59375 
L 56.203125 25.203125 
L 14.890625 25.203125 
Q 15.484375 15.921875 20.484375 11.0625 
Q 25.484375 6.203125 34.421875 6.203125 
Q 39.59375 6.203125 44.453125 7.46875 
Q 49.3125 8.734375 54.109375 11.28125 
L 54.109375 2.78125 
Q 49.265625 0.734375 44.1875 -0.34375 
Q 39.109375 -1.421875 33.890625 -1.421875 
Q 20.796875 -1.421875 13.15625 6.1875 
Q 5.515625 13.8125 5.515625 26.8125 
Q 5.515625 40.234375 12.765625 48.109375 
Q 20.015625 56 32.328125 56 
Q 43.359375 56 49.78125 48.890625 
Q 56.203125 41.796875 56.203125 29.59375 
z
M 47.21875 32.234375 
Q 47.125 39.59375 43.09375 43.984375 
Q 39.0625 48.390625 32.421875 48.390625 
Q 24.90625 48.390625 20.390625 44.140625 
Q 15.875 39.890625 15.1875 32.171875 
z
" id="DejaVuSans-101"/>
      </defs>
      <g style="fill:#262626;" transform="translate(130.781551 555.199026)rotate(-45)scale(0.1 -0.1)">
       <use xlink:href="#DejaVuSans-115"/>
       <use x="52.099609" xlink:href="#DejaVuSans-112"/>
       <use x="115.576172" xlink:href="#DejaVuSans-105"/>
       <use x="143.359375" xlink:href="#DejaVuSans-110"/>
       <use x="206.738281" xlink:href="#DejaVuSans-101"/>
      </g>
     </g>
    </g>
    <g id="xtick_3">
     <g id="line2d_5">
      <path clip-path="url(#pe289a20b90)" d="M 201.09 527.356875 
L 201.09 28.396875 
" style="fill:none;stroke:#ffffff;stroke-linecap:round;stroke-width:0.8;"/>
     </g>
     <g id="line2d_6"/>
     <g id="text_3">
      <!-- mediastinum -->
      <defs>
       <path d="M 52 44.1875 
Q 55.375 50.25 60.0625 53.125 
Q 64.75 56 71.09375 56 
Q 79.640625 56 84.28125 50.015625 
Q 88.921875 44.046875 88.921875 33.015625 
L 88.921875 0 
L 79.890625 0 
L 79.890625 32.71875 
Q 79.890625 40.578125 77.09375 44.375 
Q 74.3125 48.1875 68.609375 48.1875 
Q 61.625 48.1875 57.5625 43.546875 
Q 53.515625 38.921875 53.515625 30.90625 
L 53.515625 0 
L 44.484375 0 
L 44.484375 32.71875 
Q 44.484375 40.625 41.703125 44.40625 
Q 38.921875 48.1875 33.109375 48.1875 
Q 26.21875 48.1875 22.15625 43.53125 
Q 18.109375 38.875 18.109375 30.90625 
L 18.109375 0 
L 9.078125 0 
L 9.078125 54.6875 
L 18.109375 54.6875 
L 18.109375 46.1875 
Q 21.1875 51.21875 25.484375 53.609375 
Q 29.78125 56 35.6875 56 
Q 41.65625 56 45.828125 52.96875 
Q 50 49.953125 52 44.1875 
z
" id="DejaVuSans-109"/>
       <path d="M 18.3125 70.21875 
L 18.3125 54.6875 
L 36.8125 54.6875 
L 36.8125 47.703125 
L 18.3125 47.703125 
L 18.3125 18.015625 
Q 18.3125 11.328125 20.140625 9.421875 
Q 21.96875 7.515625 27.59375 7.515625 
L 36.8125 7.515625 
L 36.8125 0 
L 27.59375 0 
Q 17.1875 0 13.234375 3.875 
Q 9.28125 7.765625 9.28125 18.015625 
L 9.28125 47.703125 
L 2.6875 47.703125 
L 2.6875 54.6875 
L 9.28125 54.6875 
L 9.28125 70.21875 
z
" id="DejaVuSans-116"/>
      </defs>
      <g style="fill:#262626;" transform="translate(179.893369 582.525388)rotate(-45)scale(0.1 -0.1)">
       <use xlink:href="#DejaVuSans-109"/>
       <use x="97.412109" xlink:href="#DejaVuSans-101"/>
       <use x="158.935547" xlink:href="#DejaVuSans-100"/>
       <use x="222.412109" xlink:href="#DejaVuSans-105"/>
       <use x="250.195312" xlink:href="#DejaVuSans-97"/>
       <use x="311.474609" xlink:href="#DejaVuSans-115"/>
       <use x="363.574219" xlink:href="#DejaVuSans-116"/>
       <use x="402.783203" xlink:href="#DejaVuSans-105"/>
       <use x="430.566406" xlink:href="#DejaVuSans-110"/>
       <use x="493.945312" xlink:href="#DejaVuSans-117"/>
       <use x="557.324219" xlink:href="#DejaVuSans-109"/>
      </g>
     </g>
    </g>
    <g id="xtick_4">
     <g id="line2d_7">
      <path clip-path="url(#pe289a20b90)" d="M 263.865 527.356875 
L 263.865 28.396875 
" style="fill:none;stroke:#ffffff;stroke-linecap:round;stroke-width:0.8;"/>
     </g>
     <g id="line2d_8"/>
     <g id="text_4">
      <!-- left-lung -->
      <defs>
       <path d="M 9.421875 75.984375 
L 18.40625 75.984375 
L 18.40625 0 
L 9.421875 0 
z
" id="DejaVuSans-108"/>
       <path d="M 37.109375 75.984375 
L 37.109375 68.5 
L 28.515625 68.5 
Q 23.6875 68.5 21.796875 66.546875 
Q 19.921875 64.59375 19.921875 59.515625 
L 19.921875 54.6875 
L 34.71875 54.6875 
L 34.71875 47.703125 
L 19.921875 47.703125 
L 19.921875 0 
L 10.890625 0 
L 10.890625 47.703125 
L 2.296875 47.703125 
L 2.296875 54.6875 
L 10.890625 54.6875 
L 10.890625 58.5 
Q 10.890625 67.625 15.140625 71.796875 
Q 19.390625 75.984375 28.609375 75.984375 
z
" id="DejaVuSans-102"/>
       <path d="M 4.890625 31.390625 
L 31.203125 31.390625 
L 31.203125 23.390625 
L 4.890625 23.390625 
z
" id="DejaVuSans-45"/>
      </defs>
      <g style="fill:#262626;" transform="translate(251.044823 565.772482)rotate(-45)scale(0.1 -0.1)">
       <use xlink:href="#DejaVuSans-108"/>
       <use x="27.783203" xlink:href="#DejaVuSans-101"/>
       <use x="89.306641" xlink:href="#DejaVuSans-102"/>
       <use x="124.496094" xlink:href="#DejaVuSans-116"/>
       <use x="163.705078" xlink:href="#DejaVuSans-45"/>
       <use x="199.789062" xlink:href="#DejaVuSans-108"/>
       <use x="227.572266" xlink:href="#DejaVuSans-117"/>
       <use x="290.951172" xlink:href="#DejaVuSans-110"/>
       <use x="354.330078" xlink:href="#DejaVuSans-103"/>
      </g>
     </g>
    </g>
    <g id="xtick_5">
     <g id="line2d_9">
      <path clip-path="url(#pe289a20b90)" d="M 326.64 527.356875 
L 326.64 28.396875 
" style="fill:none;stroke:#ffffff;stroke-linecap:round;stroke-width:0.8;"/>
     </g>
     <g id="line2d_10"/>
     <g id="text_5">
      <!-- right-lung -->
      <defs>
       <path d="M 54.890625 33.015625 
L 54.890625 0 
L 45.90625 0 
L 45.90625 32.71875 
Q 45.90625 40.484375 42.875 44.328125 
Q 39.84375 48.1875 33.796875 48.1875 
Q 26.515625 48.1875 22.3125 43.546875 
Q 18.109375 38.921875 18.109375 30.90625 
L 18.109375 0 
L 9.078125 0 
L 9.078125 75.984375 
L 18.109375 75.984375 
L 18.109375 46.1875 
Q 21.34375 51.125 25.703125 53.5625 
Q 30.078125 56 35.796875 56 
Q 45.21875 56 50.046875 50.171875 
Q 54.890625 44.34375 54.890625 33.015625 
z
" id="DejaVuSans-104"/>
      </defs>
      <g style="fill:#262626;" transform="translate(311.300755 570.810618)rotate(-45)scale(0.1 -0.1)">
       <use xlink:href="#DejaVuSans-114"/>
       <use x="41.113281" xlink:href="#DejaVuSans-105"/>
       <use x="68.896484" xlink:href="#DejaVuSans-103"/>
       <use x="132.373047" xlink:href="#DejaVuSans-104"/>
       <use x="195.751953" xlink:href="#DejaVuSans-116"/>
       <use x="234.960938" xlink:href="#DejaVuSans-45"/>
       <use x="271.044922" xlink:href="#DejaVuSans-108"/>
       <use x="298.828125" xlink:href="#DejaVuSans-117"/>
       <use x="362.207031" xlink:href="#DejaVuSans-110"/>
       <use x="425.585938" xlink:href="#DejaVuSans-103"/>
      </g>
     </g>
    </g>
    <g id="xtick_6">
     <g id="line2d_11">
      <path clip-path="url(#pe289a20b90)" d="M 389.415 527.356875 
L 389.415 28.396875 
" style="fill:none;stroke:#ffffff;stroke-linecap:round;stroke-width:0.8;"/>
     </g>
     <g id="line2d_12"/>
     <g id="text_6">
      <!-- left-subd -->
      <g style="fill:#262626;" transform="translate(375.731379 567.499369)rotate(-45)scale(0.1 -0.1)">
       <use xlink:href="#DejaVuSans-108"/>
       <use x="27.783203" xlink:href="#DejaVuSans-101"/>
       <use x="89.306641" xlink:href="#DejaVuSans-102"/>
       <use x="124.496094" xlink:href="#DejaVuSans-116"/>
       <use x="163.705078" xlink:href="#DejaVuSans-45"/>
       <use x="199.789062" xlink:href="#DejaVuSans-115"/>
       <use x="251.888672" xlink:href="#DejaVuSans-117"/>
       <use x="315.267578" xlink:href="#DejaVuSans-98"/>
       <use x="378.744141" xlink:href="#DejaVuSans-100"/>
      </g>
     </g>
    </g>
    <g id="xtick_7">
     <g id="line2d_13">
      <path clip-path="url(#pe289a20b90)" d="M 452.19 527.356875 
L 452.19 28.396875 
" style="fill:none;stroke:#ffffff;stroke-linecap:round;stroke-width:0.8;"/>
     </g>
     <g id="line2d_14"/>
     <g id="text_7">
      <!-- right-subd -->
      <g style="fill:#262626;" transform="translate(435.987311 572.537505)rotate(-45)scale(0.1 -0.1)">
       <use xlink:href="#DejaVuSans-114"/>
       <use x="41.113281" xlink:href="#DejaVuSans-105"/>
       <use x="68.896484" xlink:href="#DejaVuSans-103"/>
       <use x="132.373047" xlink:href="#DejaVuSans-104"/>
       <use x="195.751953" xlink:href="#DejaVuSans-116"/>
       <use x="234.960938" xlink:href="#DejaVuSans-45"/>
       <use x="271.044922" xlink:href="#DejaVuSans-115"/>
       <use x="323.144531" xlink:href="#DejaVuSans-117"/>
       <use x="386.523438" xlink:href="#DejaVuSans-98"/>
       <use x="450" xlink:href="#DejaVuSans-100"/>
      </g>
     </g>
    </g>
    <g id="xtick_8">
     <g id="line2d_15">
      <path clip-path="url(#pe289a20b90)" d="M 514.965 527.356875 
L 514.965 28.396875 
" style="fill:none;stroke:#ffffff;stroke-linecap:round;stroke-width:0.8;"/>
     </g>
     <g id="line2d_16"/>
     <g id="text_8">
      <!-- carina -->
      <g style="fill:#262626;" transform="translate(505.962647 558.136834)rotate(-45)scale(0.1 -0.1)">
       <use xlink:href="#DejaVuSans-99"/>
       <use x="54.980469" xlink:href="#DejaVuSans-97"/>
       <use x="116.259766" xlink:href="#DejaVuSans-114"/>
       <use x="157.373047" xlink:href="#DejaVuSans-105"/>
       <use x="185.15625" xlink:href="#DejaVuSans-110"/>
       <use x="248.535156" xlink:href="#DejaVuSans-97"/>
      </g>
     </g>
    </g>
    <g id="text_9">
     <!-- Region -->
     <defs>
      <path d="M 44.390625 34.1875 
Q 47.5625 33.109375 50.5625 29.59375 
Q 53.5625 26.078125 56.59375 19.921875 
L 66.609375 0 
L 56 0 
L 46.6875 18.703125 
Q 43.0625 26.03125 39.671875 28.421875 
Q 36.28125 30.8125 30.421875 30.8125 
L 19.671875 30.8125 
L 19.671875 0 
L 9.8125 0 
L 9.8125 72.90625 
L 32.078125 72.90625 
Q 44.578125 72.90625 50.734375 67.671875 
Q 56.890625 62.453125 56.890625 51.90625 
Q 56.890625 45.015625 53.6875 40.46875 
Q 50.484375 35.9375 44.390625 34.1875 
z
M 19.671875 64.796875 
L 19.671875 38.921875 
L 32.078125 38.921875 
Q 39.203125 38.921875 42.84375 42.21875 
Q 46.484375 45.515625 46.484375 51.90625 
Q 46.484375 58.296875 42.84375 61.546875 
Q 39.203125 64.796875 32.078125 64.796875 
z
" id="DejaVuSans-82"/>
     </defs>
     <g style="fill:#262626;" transform="translate(270.977813 598.633762)scale(0.14 -0.14)">
      <use xlink:href="#DejaVuSans-82"/>
      <use x="69.419922" xlink:href="#DejaVuSans-101"/>
      <use x="130.943359" xlink:href="#DejaVuSans-103"/>
      <use x="194.419922" xlink:href="#DejaVuSans-105"/>
      <use x="222.203125" xlink:href="#DejaVuSans-111"/>
      <use x="283.384766" xlink:href="#DejaVuSans-110"/>
     </g>
    </g>
   </g>
   <g id="matplotlib.axis_2">
    <g id="ytick_1">
     <g id="line2d_17">
      <path clip-path="url(#pe289a20b90)" d="M 44.1525 504.676875 
L 546.3525 504.676875 
" style="fill:none;stroke:#ffffff;stroke-linecap:round;stroke-width:0.8;"/>
     </g>
     <g id="line2d_18"/>
     <g id="text_10">
      <!-- 0.0 -->
      <defs>
       <path d="M 31.78125 66.40625 
Q 24.171875 66.40625 20.328125 58.90625 
Q 16.5 51.421875 16.5 36.375 
Q 16.5 21.390625 20.328125 13.890625 
Q 24.171875 6.390625 31.78125 6.390625 
Q 39.453125 6.390625 43.28125 13.890625 
Q 47.125 21.390625 47.125 36.375 
Q 47.125 51.421875 43.28125 58.90625 
Q 39.453125 66.40625 31.78125 66.40625 
z
M 31.78125 74.21875 
Q 44.046875 74.21875 50.515625 64.515625 
Q 56.984375 54.828125 56.984375 36.375 
Q 56.984375 17.96875 50.515625 8.265625 
Q 44.046875 -1.421875 31.78125 -1.421875 
Q 19.53125 -1.421875 13.0625 8.265625 
Q 6.59375 17.96875 6.59375 36.375 
Q 6.59375 54.828125 13.0625 64.515625 
Q 19.53125 74.21875 31.78125 74.21875 
z
" id="DejaVuSans-48"/>
       <path d="M 10.6875 12.40625 
L 21 12.40625 
L 21 0 
L 10.6875 0 
z
" id="DejaVuSans-46"/>
      </defs>
      <g style="fill:#262626;" transform="translate(24.749375 508.476094)scale(0.1 -0.1)">
       <use xlink:href="#DejaVuSans-48"/>
       <use x="63.623047" xlink:href="#DejaVuSans-46"/>
       <use x="95.410156" xlink:href="#DejaVuSans-48"/>
      </g>
     </g>
    </g>
    <g id="ytick_2">
     <g id="line2d_19">
      <path clip-path="url(#pe289a20b90)" d="M 44.1525 412.926609 
L 546.3525 412.926609 
" style="fill:none;stroke:#ffffff;stroke-linecap:round;stroke-width:0.8;"/>
     </g>
     <g id="line2d_20"/>
     <g id="text_11">
      <!-- 0.2 -->
      <defs>
       <path d="M 19.1875 8.296875 
L 53.609375 8.296875 
L 53.609375 0 
L 7.328125 0 
L 7.328125 8.296875 
Q 12.9375 14.109375 22.625 23.890625 
Q 32.328125 33.6875 34.8125 36.53125 
Q 39.546875 41.84375 41.421875 45.53125 
Q 43.3125 49.21875 43.3125 52.78125 
Q 43.3125 58.59375 39.234375 62.25 
Q 35.15625 65.921875 28.609375 65.921875 
Q 23.96875 65.921875 18.8125 64.3125 
Q 13.671875 62.703125 7.8125 59.421875 
L 7.8125 69.390625 
Q 13.765625 71.78125 18.9375 73 
Q 24.125 74.21875 28.421875 74.21875 
Q 39.75 74.21875 46.484375 68.546875 
Q 53.21875 62.890625 53.21875 53.421875 
Q 53.21875 48.921875 51.53125 44.890625 
Q 49.859375 40.875 45.40625 35.40625 
Q 44.1875 33.984375 37.640625 27.21875 
Q 31.109375 20.453125 19.1875 8.296875 
z
" id="DejaVuSans-50"/>
      </defs>
      <g style="fill:#262626;" transform="translate(24.749375 416.725828)scale(0.1 -0.1)">
       <use xlink:href="#DejaVuSans-48"/>
       <use x="63.623047" xlink:href="#DejaVuSans-46"/>
       <use x="95.410156" xlink:href="#DejaVuSans-50"/>
      </g>
     </g>
    </g>
    <g id="ytick_3">
     <g id="line2d_21">
      <path clip-path="url(#pe289a20b90)" d="M 44.1525 321.176343 
L 546.3525 321.176343 
" style="fill:none;stroke:#ffffff;stroke-linecap:round;stroke-width:0.8;"/>
     </g>
     <g id="line2d_22"/>
     <g id="text_12">
      <!-- 0.4 -->
      <defs>
       <path d="M 37.796875 64.3125 
L 12.890625 25.390625 
L 37.796875 25.390625 
z
M 35.203125 72.90625 
L 47.609375 72.90625 
L 47.609375 25.390625 
L 58.015625 25.390625 
L 58.015625 17.1875 
L 47.609375 17.1875 
L 47.609375 0 
L 37.796875 0 
L 37.796875 17.1875 
L 4.890625 17.1875 
L 4.890625 26.703125 
z
" id="DejaVuSans-52"/>
      </defs>
      <g style="fill:#262626;" transform="translate(24.749375 324.975562)scale(0.1 -0.1)">
       <use xlink:href="#DejaVuSans-48"/>
       <use x="63.623047" xlink:href="#DejaVuSans-46"/>
       <use x="95.410156" xlink:href="#DejaVuSans-52"/>
      </g>
     </g>
    </g>
    <g id="ytick_4">
     <g id="line2d_23">
      <path clip-path="url(#pe289a20b90)" d="M 44.1525 229.426077 
L 546.3525 229.426077 
" style="fill:none;stroke:#ffffff;stroke-linecap:round;stroke-width:0.8;"/>
     </g>
     <g id="line2d_24"/>
     <g id="text_13">
      <!-- 0.6 -->
      <defs>
       <path d="M 33.015625 40.375 
Q 26.375 40.375 22.484375 35.828125 
Q 18.609375 31.296875 18.609375 23.390625 
Q 18.609375 15.53125 22.484375 10.953125 
Q 26.375 6.390625 33.015625 6.390625 
Q 39.65625 6.390625 43.53125 10.953125 
Q 47.40625 15.53125 47.40625 23.390625 
Q 47.40625 31.296875 43.53125 35.828125 
Q 39.65625 40.375 33.015625 40.375 
z
M 52.59375 71.296875 
L 52.59375 62.3125 
Q 48.875 64.0625 45.09375 64.984375 
Q 41.3125 65.921875 37.59375 65.921875 
Q 27.828125 65.921875 22.671875 59.328125 
Q 17.53125 52.734375 16.796875 39.40625 
Q 19.671875 43.65625 24.015625 45.921875 
Q 28.375 48.1875 33.59375 48.1875 
Q 44.578125 48.1875 50.953125 41.515625 
Q 57.328125 34.859375 57.328125 23.390625 
Q 57.328125 12.15625 50.6875 5.359375 
Q 44.046875 -1.421875 33.015625 -1.421875 
Q 20.359375 -1.421875 13.671875 8.265625 
Q 6.984375 17.96875 6.984375 36.375 
Q 6.984375 53.65625 15.1875 63.9375 
Q 23.390625 74.21875 37.203125 74.21875 
Q 40.921875 74.21875 44.703125 73.484375 
Q 48.484375 72.75 52.59375 71.296875 
z
" id="DejaVuSans-54"/>
      </defs>
      <g style="fill:#262626;" transform="translate(24.749375 233.225296)scale(0.1 -0.1)">
       <use xlink:href="#DejaVuSans-48"/>
       <use x="63.623047" xlink:href="#DejaVuSans-46"/>
       <use x="95.410156" xlink:href="#DejaVuSans-54"/>
      </g>
     </g>
    </g>
    <g id="ytick_5">
     <g id="line2d_25">
      <path clip-path="url(#pe289a20b90)" d="M 44.1525 137.675811 
L 546.3525 137.675811 
" style="fill:none;stroke:#ffffff;stroke-linecap:round;stroke-width:0.8;"/>
     </g>
     <g id="line2d_26"/>
     <g id="text_14">
      <!-- 0.8 -->
      <defs>
       <path d="M 31.78125 34.625 
Q 24.75 34.625 20.71875 30.859375 
Q 16.703125 27.09375 16.703125 20.515625 
Q 16.703125 13.921875 20.71875 10.15625 
Q 24.75 6.390625 31.78125 6.390625 
Q 38.8125 6.390625 42.859375 10.171875 
Q 46.921875 13.96875 46.921875 20.515625 
Q 46.921875 27.09375 42.890625 30.859375 
Q 38.875 34.625 31.78125 34.625 
z
M 21.921875 38.8125 
Q 15.578125 40.375 12.03125 44.71875 
Q 8.5 49.078125 8.5 55.328125 
Q 8.5 64.0625 14.71875 69.140625 
Q 20.953125 74.21875 31.78125 74.21875 
Q 42.671875 74.21875 48.875 69.140625 
Q 55.078125 64.0625 55.078125 55.328125 
Q 55.078125 49.078125 51.53125 44.71875 
Q 48 40.375 41.703125 38.8125 
Q 48.828125 37.15625 52.796875 32.3125 
Q 56.78125 27.484375 56.78125 20.515625 
Q 56.78125 9.90625 50.3125 4.234375 
Q 43.84375 -1.421875 31.78125 -1.421875 
Q 19.734375 -1.421875 13.25 4.234375 
Q 6.78125 9.90625 6.78125 20.515625 
Q 6.78125 27.484375 10.78125 32.3125 
Q 14.796875 37.15625 21.921875 38.8125 
z
M 18.3125 54.390625 
Q 18.3125 48.734375 21.84375 45.5625 
Q 25.390625 42.390625 31.78125 42.390625 
Q 38.140625 42.390625 41.71875 45.5625 
Q 45.3125 48.734375 45.3125 54.390625 
Q 45.3125 60.0625 41.71875 63.234375 
Q 38.140625 66.40625 31.78125 66.40625 
Q 25.390625 66.40625 21.84375 63.234375 
Q 18.3125 60.0625 18.3125 54.390625 
z
" id="DejaVuSans-56"/>
      </defs>
      <g style="fill:#262626;" transform="translate(24.749375 141.47503)scale(0.1 -0.1)">
       <use xlink:href="#DejaVuSans-48"/>
       <use x="63.623047" xlink:href="#DejaVuSans-46"/>
       <use x="95.410156" xlink:href="#DejaVuSans-56"/>
      </g>
     </g>
    </g>
    <g id="ytick_6">
     <g id="line2d_27">
      <path clip-path="url(#pe289a20b90)" d="M 44.1525 45.925545 
L 546.3525 45.925545 
" style="fill:none;stroke:#ffffff;stroke-linecap:round;stroke-width:0.8;"/>
     </g>
     <g id="line2d_28"/>
     <g id="text_15">
      <!-- 1.0 -->
      <defs>
       <path d="M 12.40625 8.296875 
L 28.515625 8.296875 
L 28.515625 63.921875 
L 10.984375 60.40625 
L 10.984375 69.390625 
L 28.421875 72.90625 
L 38.28125 72.90625 
L 38.28125 8.296875 
L 54.390625 8.296875 
L 54.390625 0 
L 12.40625 0 
z
" id="DejaVuSans-49"/>
      </defs>
      <g style="fill:#262626;" transform="translate(24.749375 49.724763)scale(0.1 -0.1)">
       <use xlink:href="#DejaVuSans-49"/>
       <use x="63.623047" xlink:href="#DejaVuSans-46"/>
       <use x="95.410156" xlink:href="#DejaVuSans-48"/>
      </g>
     </g>
    </g>
    <g id="text_16">
     <!-- Dice coefficient -->
     <defs>
      <path d="M 19.671875 64.796875 
L 19.671875 8.109375 
L 31.59375 8.109375 
Q 46.6875 8.109375 53.6875 14.9375 
Q 60.6875 21.78125 60.6875 36.53125 
Q 60.6875 51.171875 53.6875 57.984375 
Q 46.6875 64.796875 31.59375 64.796875 
z
M 9.8125 72.90625 
L 30.078125 72.90625 
Q 51.265625 72.90625 61.171875 64.09375 
Q 71.09375 55.28125 71.09375 36.53125 
Q 71.09375 17.671875 61.125 8.828125 
Q 51.171875 0 30.078125 0 
L 9.8125 0 
z
" id="DejaVuSans-68"/>
      <path id="DejaVuSans-32"/>
     </defs>
     <g style="fill:#262626;" transform="translate(17.837813 332.185937)rotate(-90)scale(0.14 -0.14)">
      <use xlink:href="#DejaVuSans-68"/>
      <use x="77.001953" xlink:href="#DejaVuSans-105"/>
      <use x="104.785156" xlink:href="#DejaVuSans-99"/>
      <use x="159.765625" xlink:href="#DejaVuSans-101"/>
      <use x="221.289062" xlink:href="#DejaVuSans-32"/>
      <use x="253.076172" xlink:href="#DejaVuSans-99"/>
      <use x="308.056641" xlink:href="#DejaVuSans-111"/>
      <use x="369.238281" xlink:href="#DejaVuSans-101"/>
      <use x="430.761719" xlink:href="#DejaVuSans-102"/>
      <use x="465.966797" xlink:href="#DejaVuSans-102"/>
      <use x="501.171875" xlink:href="#DejaVuSans-105"/>
      <use x="528.955078" xlink:href="#DejaVuSans-99"/>
      <use x="583.935547" xlink:href="#DejaVuSans-105"/>
      <use x="611.71875" xlink:href="#DejaVuSans-101"/>
      <use x="673.242188" xlink:href="#DejaVuSans-110"/>
      <use x="736.621094" xlink:href="#DejaVuSans-116"/>
     </g>
    </g>
   </g>
   <g id="line2d_29">
    <path clip-path="url(#pe289a20b90)" d="M 59.84625 65.556001 
L 91.23375 65.556001 
L 91.23375 55.6334 
L 59.84625 55.6334 
L 59.84625 65.556001 
" style="fill:none;stroke:#000000;stroke-linecap:round;"/>
   </g>
   <g id="line2d_30">
    <path clip-path="url(#pe289a20b90)" d="M 75.54 65.556001 
L 75.54 76.210444 
" style="fill:none;stroke:#000000;stroke-linecap:round;"/>
   </g>
   <g id="line2d_31">
    <path clip-path="url(#pe289a20b90)" d="M 75.54 55.6334 
L 75.54 51.076875 
" style="fill:none;stroke:#000000;stroke-linecap:round;"/>
   </g>
   <g id="line2d_32">
    <path clip-path="url(#pe289a20b90)" d="M 67.693125 76.210444 
L 83.386875 76.210444 
" style="fill:none;stroke:#000000;stroke-linecap:round;"/>
   </g>
   <g id="line2d_33">
    <path clip-path="url(#pe289a20b90)" d="M 67.693125 51.076875 
L 83.386875 51.076875 
" style="fill:none;stroke:#000000;stroke-linecap:round;"/>
   </g>
   <g id="line2d_34">
    <defs>
     <path d="M 0 3 
C 0.795609 3 1.55874 2.683901 2.12132 2.12132 
C 2.683901 1.55874 3 0.795609 3 0 
C 3 -0.795609 2.683901 -1.55874 2.12132 -2.12132 
C 1.55874 -2.683901 0.795609 -3 0 -3 
C -0.795609 -3 -1.55874 -2.683901 -2.12132 -2.12132 
C -2.683901 -1.55874 -3 -0.795609 -3 0 
C -3 0.795609 -2.683901 1.55874 -2.12132 2.12132 
C -1.55874 2.683901 -0.795609 3 0 3 
z
" id="me29f92467c" style="stroke:#000000;"/>
    </defs>
    <g clip-path="url(#pe289a20b90)">
     <use style="fill-opacity:0;stroke:#000000;" x="75.54" xlink:href="#me29f92467c" y="84.107398"/>
     <use style="fill-opacity:0;stroke:#000000;" x="75.54" xlink:href="#me29f92467c" y="84.237591"/>
     <use style="fill-opacity:0;stroke:#000000;" x="75.54" xlink:href="#me29f92467c" y="110.074492"/>
    </g>
   </g>
   <g id="line2d_35">
    <path clip-path="url(#pe289a20b90)" d="M 122.62125 103.82175 
L 154.00875 103.82175 
L 154.00875 79.037561 
L 122.62125 79.037561 
L 122.62125 103.82175 
" style="fill:none;stroke:#000000;stroke-linecap:round;"/>
   </g>
   <g id="line2d_36">
    <path clip-path="url(#pe289a20b90)" d="M 138.315 103.82175 
L 138.315 134.914599 
" style="fill:none;stroke:#000000;stroke-linecap:round;"/>
   </g>
   <g id="line2d_37">
    <path clip-path="url(#pe289a20b90)" d="M 138.315 79.037561 
L 138.315 64.413885 
" style="fill:none;stroke:#000000;stroke-linecap:round;"/>
   </g>
   <g id="line2d_38">
    <path clip-path="url(#pe289a20b90)" d="M 130.468125 134.914599 
L 146.161875 134.914599 
" style="fill:none;stroke:#000000;stroke-linecap:round;"/>
   </g>
   <g id="line2d_39">
    <path clip-path="url(#pe289a20b90)" d="M 130.468125 64.413885 
L 146.161875 64.413885 
" style="fill:none;stroke:#000000;stroke-linecap:round;"/>
   </g>
   <g id="line2d_40">
    <g clip-path="url(#pe289a20b90)">
     <use style="fill-opacity:0;stroke:#000000;" x="138.315" xlink:href="#me29f92467c" y="152.407759"/>
    </g>
   </g>
   <g id="line2d_41">
    <path clip-path="url(#pe289a20b90)" d="M 185.39625 140.847235 
L 216.78375 140.847235 
L 216.78375 104.87427 
L 185.39625 104.87427 
L 185.39625 140.847235 
" style="fill:none;stroke:#000000;stroke-linecap:round;"/>
   </g>
   <g id="line2d_42">
    <path clip-path="url(#pe289a20b90)" d="M 201.09 140.847235 
L 201.09 191.618843 
" style="fill:none;stroke:#000000;stroke-linecap:round;"/>
   </g>
   <g id="line2d_43">
    <path clip-path="url(#pe289a20b90)" d="M 201.09 104.87427 
L 201.09 79.805383 
" style="fill:none;stroke:#000000;stroke-linecap:round;"/>
   </g>
   <g id="line2d_44">
    <path clip-path="url(#pe289a20b90)" d="M 193.243125 191.618843 
L 208.936875 191.618843 
" style="fill:none;stroke:#000000;stroke-linecap:round;"/>
   </g>
   <g id="line2d_45">
    <path clip-path="url(#pe289a20b90)" d="M 193.243125 79.805383 
L 208.936875 79.805383 
" style="fill:none;stroke:#000000;stroke-linecap:round;"/>
   </g>
   <g id="line2d_46">
    <g clip-path="url(#pe289a20b90)">
     <use style="fill-opacity:0;stroke:#000000;" x="201.09" xlink:href="#me29f92467c" y="212.824855"/>
     <use style="fill-opacity:0;stroke:#000000;" x="201.09" xlink:href="#me29f92467c" y="222.700785"/>
     <use style="fill-opacity:0;stroke:#000000;" x="201.09" xlink:href="#me29f92467c" y="244.422781"/>
    </g>
   </g>
   <g id="line2d_47">
    <path clip-path="url(#pe289a20b90)" d="M 248.17125 91.236753 
L 279.55875 91.236753 
L 279.55875 65.639687 
L 248.17125 65.639687 
L 248.17125 91.236753 
" style="fill:none;stroke:#000000;stroke-linecap:round;"/>
   </g>
   <g id="line2d_48">
    <path clip-path="url(#pe289a20b90)" d="M 263.865 91.236753 
L 263.865 122.770645 
" style="fill:none;stroke:#000000;stroke-linecap:round;"/>
   </g>
   <g id="line2d_49">
    <path clip-path="url(#pe289a20b90)" d="M 263.865 65.639687 
L 263.865 55.425665 
" style="fill:none;stroke:#000000;stroke-linecap:round;"/>
   </g>
   <g id="line2d_50">
    <path clip-path="url(#pe289a20b90)" d="M 256.018125 122.770645 
L 271.711875 122.770645 
" style="fill:none;stroke:#000000;stroke-linecap:round;"/>
   </g>
   <g id="line2d_51">
    <path clip-path="url(#pe289a20b90)" d="M 256.018125 55.425665 
L 271.711875 55.425665 
" style="fill:none;stroke:#000000;stroke-linecap:round;"/>
   </g>
   <g id="line2d_52">
    <g clip-path="url(#pe289a20b90)">
     <use style="fill-opacity:0;stroke:#000000;" x="263.865" xlink:href="#me29f92467c" y="187.206464"/>
     <use style="fill-opacity:0;stroke:#000000;" x="263.865" xlink:href="#me29f92467c" y="141.993719"/>
     <use style="fill-opacity:0;stroke:#000000;" x="263.865" xlink:href="#me29f92467c" y="140.264596"/>
     <use style="fill-opacity:0;stroke:#000000;" x="263.865" xlink:href="#me29f92467c" y="169.922686"/>
     <use style="fill-opacity:0;stroke:#000000;" x="263.865" xlink:href="#me29f92467c" y="144.271882"/>
    </g>
   </g>
   <g id="line2d_53">
    <path clip-path="url(#pe289a20b90)" d="M 310.94625 83.17051 
L 342.33375 83.17051 
L 342.33375 65.404692 
L 310.94625 65.404692 
L 310.94625 83.17051 
" style="fill:none;stroke:#000000;stroke-linecap:round;"/>
   </g>
   <g id="line2d_54">
    <path clip-path="url(#pe289a20b90)" d="M 326.64 83.17051 
L 326.64 97.899809 
" style="fill:none;stroke:#000000;stroke-linecap:round;"/>
   </g>
   <g id="line2d_55">
    <path clip-path="url(#pe289a20b90)" d="M 326.64 65.404692 
L 326.64 59.058033 
" style="fill:none;stroke:#000000;stroke-linecap:round;"/>
   </g>
   <g id="line2d_56">
    <path clip-path="url(#pe289a20b90)" d="M 318.793125 97.899809 
L 334.486875 97.899809 
" style="fill:none;stroke:#000000;stroke-linecap:round;"/>
   </g>
   <g id="line2d_57">
    <path clip-path="url(#pe289a20b90)" d="M 318.793125 59.058033 
L 334.486875 59.058033 
" style="fill:none;stroke:#000000;stroke-linecap:round;"/>
   </g>
   <g id="line2d_58">
    <g clip-path="url(#pe289a20b90)">
     <use style="fill-opacity:0;stroke:#000000;" x="326.64" xlink:href="#me29f92467c" y="113.852935"/>
     <use style="fill-opacity:0;stroke:#000000;" x="326.64" xlink:href="#me29f92467c" y="124.10605"/>
     <use style="fill-opacity:0;stroke:#000000;" x="326.64" xlink:href="#me29f92467c" y="111.054394"/>
    </g>
   </g>
   <g id="line2d_59">
    <path clip-path="url(#pe289a20b90)" d="M 373.72125 115.653587 
L 405.10875 115.653587 
L 405.10875 73.518616 
L 373.72125 73.518616 
L 373.72125 115.653587 
" style="fill:none;stroke:#000000;stroke-linecap:round;"/>
   </g>
   <g id="line2d_60">
    <path clip-path="url(#pe289a20b90)" d="M 389.415 115.653587 
L 389.415 166.076408 
" style="fill:none;stroke:#000000;stroke-linecap:round;"/>
   </g>
   <g id="line2d_61">
    <path clip-path="url(#pe289a20b90)" d="M 389.415 73.518616 
L 389.415 55.720276 
" style="fill:none;stroke:#000000;stroke-linecap:round;"/>
   </g>
   <g id="line2d_62">
    <path clip-path="url(#pe289a20b90)" d="M 381.568125 166.076408 
L 397.261875 166.076408 
" style="fill:none;stroke:#000000;stroke-linecap:round;"/>
   </g>
   <g id="line2d_63">
    <path clip-path="url(#pe289a20b90)" d="M 381.568125 55.720276 
L 397.261875 55.720276 
" style="fill:none;stroke:#000000;stroke-linecap:round;"/>
   </g>
   <g id="line2d_64">
    <g clip-path="url(#pe289a20b90)">
     <use style="fill-opacity:0;stroke:#000000;" x="389.415" xlink:href="#me29f92467c" y="270.981769"/>
     <use style="fill-opacity:0;stroke:#000000;" x="389.415" xlink:href="#me29f92467c" y="227.458876"/>
     <use style="fill-opacity:0;stroke:#000000;" x="389.415" xlink:href="#me29f92467c" y="199.222573"/>
    </g>
   </g>
   <g id="line2d_65">
    <path clip-path="url(#pe289a20b90)" d="M 436.49625 96.547661 
L 467.88375 96.547661 
L 467.88375 68.873632 
L 436.49625 68.873632 
L 436.49625 96.547661 
" style="fill:none;stroke:#000000;stroke-linecap:round;"/>
   </g>
   <g id="line2d_66">
    <path clip-path="url(#pe289a20b90)" d="M 452.19 96.547661 
L 452.19 137.382913 
" style="fill:none;stroke:#000000;stroke-linecap:round;"/>
   </g>
   <g id="line2d_67">
    <path clip-path="url(#pe289a20b90)" d="M 452.19 68.873632 
L 452.19 56.590148 
" style="fill:none;stroke:#000000;stroke-linecap:round;"/>
   </g>
   <g id="line2d_68">
    <path clip-path="url(#pe289a20b90)" d="M 444.343125 137.382913 
L 460.036875 137.382913 
" style="fill:none;stroke:#000000;stroke-linecap:round;"/>
   </g>
   <g id="line2d_69">
    <path clip-path="url(#pe289a20b90)" d="M 444.343125 56.590148 
L 460.036875 56.590148 
" style="fill:none;stroke:#000000;stroke-linecap:round;"/>
   </g>
   <g id="line2d_70">
    <g clip-path="url(#pe289a20b90)">
     <use style="fill-opacity:0;stroke:#000000;" x="452.19" xlink:href="#me29f92467c" y="244.07767"/>
     <use style="fill-opacity:0;stroke:#000000;" x="452.19" xlink:href="#me29f92467c" y="139.650114"/>
     <use style="fill-opacity:0;stroke:#000000;" x="452.19" xlink:href="#me29f92467c" y="138.991798"/>
     <use style="fill-opacity:0;stroke:#000000;" x="452.19" xlink:href="#me29f92467c" y="156.446545"/>
    </g>
   </g>
   <g id="line2d_71">
    <path clip-path="url(#pe289a20b90)" d="M 499.27125 504.676875 
L 530.65875 504.676875 
L 530.65875 265.852233 
L 499.27125 265.852233 
L 499.27125 504.676875 
" style="fill:none;stroke:#000000;stroke-linecap:round;"/>
   </g>
   <g id="line2d_72">
    <path clip-path="url(#pe289a20b90)" d="M 514.965 504.676875 
L 514.965 504.676875 
" style="fill:none;stroke:#000000;stroke-linecap:round;"/>
   </g>
   <g id="line2d_73">
    <path clip-path="url(#pe289a20b90)" d="M 514.965 265.852233 
L 514.965 78.693497 
" style="fill:none;stroke:#000000;stroke-linecap:round;"/>
   </g>
   <g id="line2d_74">
    <path clip-path="url(#pe289a20b90)" d="M 507.118125 504.676875 
L 522.811875 504.676875 
" style="fill:none;stroke:#000000;stroke-linecap:round;"/>
   </g>
   <g id="line2d_75">
    <path clip-path="url(#pe289a20b90)" d="M 507.118125 78.693497 
L 522.811875 78.693497 
" style="fill:none;stroke:#000000;stroke-linecap:round;"/>
   </g>
   <g id="line2d_76"/>
   <g id="line2d_77">
    <path clip-path="url(#pe289a20b90)" d="M 59.84625 61.67174 
L 91.23375 61.67174 
" style="fill:none;stroke:#ff7f0e;stroke-linecap:round;"/>
   </g>
   <g id="line2d_78">
    <path clip-path="url(#pe289a20b90)" d="M 122.62125 87.248149 
L 154.00875 87.248149 
" style="fill:none;stroke:#ff7f0e;stroke-linecap:round;"/>
   </g>
   <g id="line2d_79">
    <path clip-path="url(#pe289a20b90)" d="M 185.39625 121.367599 
L 216.78375 121.367599 
" style="fill:none;stroke:#ff7f0e;stroke-linecap:round;"/>
   </g>
   <g id="line2d_80">
    <path clip-path="url(#pe289a20b90)" d="M 248.17125 78.10228 
L 279.55875 78.10228 
" style="fill:none;stroke:#ff7f0e;stroke-linecap:round;"/>
   </g>
   <g id="line2d_81">
    <path clip-path="url(#pe289a20b90)" d="M 310.94625 74.484538 
L 342.33375 74.484538 
" style="fill:none;stroke:#ff7f0e;stroke-linecap:round;"/>
   </g>
   <g id="line2d_82">
    <path clip-path="url(#pe289a20b90)" d="M 373.72125 93.601185 
L 405.10875 93.601185 
" style="fill:none;stroke:#ff7f0e;stroke-linecap:round;"/>
   </g>
   <g id="line2d_83">
    <path clip-path="url(#pe289a20b90)" d="M 436.49625 78.848462 
L 467.88375 78.848462 
" style="fill:none;stroke:#ff7f0e;stroke-linecap:round;"/>
   </g>
   <g id="line2d_84">
    <path clip-path="url(#pe289a20b90)" d="M 499.27125 348.582267 
L 530.65875 348.582267 
" style="fill:none;stroke:#ff7f0e;stroke-linecap:round;"/>
   </g>
   <g id="patch_3">
    <path d="M 44.1525 527.356875 
L 44.1525 28.396875 
" style="fill:none;"/>
   </g>
   <g id="patch_4">
    <path d="M 546.3525 527.356875 
L 546.3525 28.396875 
" style="fill:none;"/>
   </g>
   <g id="patch_5">
    <path d="M 44.1525 527.356875 
L 546.3525 527.356875 
" style="fill:none;"/>
   </g>
   <g id="patch_6">
    <path d="M 44.1525 28.396875 
L 546.3525 28.396875 
" style="fill:none;"/>
   </g>
   <g id="text_17">
    <!-- Dice Coefficient by Region for w2-cce* -->
    <defs>
     <path d="M 64.40625 67.28125 
L 64.40625 56.890625 
Q 59.421875 61.53125 53.78125 63.8125 
Q 48.140625 66.109375 41.796875 66.109375 
Q 29.296875 66.109375 22.65625 58.46875 
Q 16.015625 50.828125 16.015625 36.375 
Q 16.015625 21.96875 22.65625 14.328125 
Q 29.296875 6.6875 41.796875 6.6875 
Q 48.140625 6.6875 53.78125 8.984375 
Q 59.421875 11.28125 64.40625 15.921875 
L 64.40625 5.609375 
Q 59.234375 2.09375 53.4375 0.328125 
Q 47.65625 -1.421875 41.21875 -1.421875 
Q 24.65625 -1.421875 15.125 8.703125 
Q 5.609375 18.84375 5.609375 36.375 
Q 5.609375 53.953125 15.125 64.078125 
Q 24.65625 74.21875 41.21875 74.21875 
Q 47.75 74.21875 53.53125 72.484375 
Q 59.328125 70.75 64.40625 67.28125 
z
" id="DejaVuSans-67"/>
     <path d="M 32.171875 -5.078125 
Q 28.375 -14.84375 24.75 -17.8125 
Q 21.140625 -20.796875 15.09375 -20.796875 
L 7.90625 -20.796875 
L 7.90625 -13.28125 
L 13.1875 -13.28125 
Q 16.890625 -13.28125 18.9375 -11.515625 
Q 21 -9.765625 23.484375 -3.21875 
L 25.09375 0.875 
L 2.984375 54.6875 
L 12.5 54.6875 
L 29.59375 11.921875 
L 46.6875 54.6875 
L 56.203125 54.6875 
z
" id="DejaVuSans-121"/>
     <path d="M 4.203125 54.6875 
L 13.1875 54.6875 
L 24.421875 12.015625 
L 35.59375 54.6875 
L 46.1875 54.6875 
L 57.421875 12.015625 
L 68.609375 54.6875 
L 77.59375 54.6875 
L 63.28125 0 
L 52.6875 0 
L 40.921875 44.828125 
L 29.109375 0 
L 18.5 0 
z
" id="DejaVuSans-119"/>
     <path d="M 47.015625 60.890625 
L 29.5 51.421875 
L 47.015625 41.890625 
L 44.1875 37.109375 
L 27.78125 47.015625 
L 27.78125 28.609375 
L 22.21875 28.609375 
L 22.21875 47.015625 
L 5.8125 37.109375 
L 2.984375 41.890625 
L 20.515625 51.421875 
L 2.984375 60.890625 
L 5.8125 65.71875 
L 22.21875 55.8125 
L 22.21875 74.21875 
L 27.78125 74.21875 
L 27.78125 55.8125 
L 44.1875 65.71875 
z
" id="DejaVuSans-42"/>
    </defs>
    <g style="fill:#262626;" transform="translate(102.4775 22.396875)scale(0.2 -0.2)">
     <use xlink:href="#DejaVuSans-68"/>
     <use x="77.001953" xlink:href="#DejaVuSans-105"/>
     <use x="104.785156" xlink:href="#DejaVuSans-99"/>
     <use x="159.765625" xlink:href="#DejaVuSans-101"/>
     <use x="221.289062" xlink:href="#DejaVuSans-32"/>
     <use x="253.076172" xlink:href="#DejaVuSans-67"/>
     <use x="322.900391" xlink:href="#DejaVuSans-111"/>
     <use x="384.082031" xlink:href="#DejaVuSans-101"/>
     <use x="445.605469" xlink:href="#DejaVuSans-102"/>
     <use x="480.810547" xlink:href="#DejaVuSans-102"/>
     <use x="516.015625" xlink:href="#DejaVuSans-105"/>
     <use x="543.798828" xlink:href="#DejaVuSans-99"/>
     <use x="598.779297" xlink:href="#DejaVuSans-105"/>
     <use x="626.5625" xlink:href="#DejaVuSans-101"/>
     <use x="688.085938" xlink:href="#DejaVuSans-110"/>
     <use x="751.464844" xlink:href="#DejaVuSans-116"/>
     <use x="790.673828" xlink:href="#DejaVuSans-32"/>
     <use x="822.460938" xlink:href="#DejaVuSans-98"/>
     <use x="885.9375" xlink:href="#DejaVuSans-121"/>
     <use x="945.117188" xlink:href="#DejaVuSans-32"/>
     <use x="976.904297" xlink:href="#DejaVuSans-82"/>
     <use x="1046.324219" xlink:href="#DejaVuSans-101"/>
     <use x="1107.847656" xlink:href="#DejaVuSans-103"/>
     <use x="1171.324219" xlink:href="#DejaVuSans-105"/>
     <use x="1199.107422" xlink:href="#DejaVuSans-111"/>
     <use x="1260.289062" xlink:href="#DejaVuSans-110"/>
     <use x="1323.667969" xlink:href="#DejaVuSans-32"/>
     <use x="1355.455078" xlink:href="#DejaVuSans-102"/>
     <use x="1390.660156" xlink:href="#DejaVuSans-111"/>
     <use x="1451.841797" xlink:href="#DejaVuSans-114"/>
     <use x="1492.955078" xlink:href="#DejaVuSans-32"/>
     <use x="1524.742188" xlink:href="#DejaVuSans-119"/>
     <use x="1606.529297" xlink:href="#DejaVuSans-50"/>
     <use x="1670.152344" xlink:href="#DejaVuSans-45"/>
     <use x="1706.236328" xlink:href="#DejaVuSans-99"/>
     <use x="1761.216797" xlink:href="#DejaVuSans-99"/>
     <use x="1816.197266" xlink:href="#DejaVuSans-101"/>
     <use x="1877.720703" xlink:href="#DejaVuSans-42"/>
    </g>
   </g>
  </g>
 </g>
 <defs>
  <clipPath id="pe289a20b90">
   <rect height="498.96" width="502.2" x="44.1525" y="28.396875"/>
  </clipPath>
 </defs>
</svg>
